<svg version="1" xmlns="http://www.w3.org/2000/svg" width="682.667" height="682.667" viewBox="0 0 512.000000 512.000000"><path d="M374.2 50.1c-12.3 6.2-15.4 23.4-5.9 32.7 1.7 1.7 7.9 6.6 13.7 10.8 10.3 7.5 28.8 25.1 36.6 34.8 10.3 12.7 20.5 29.3 27.2 44.4 7.4 16.4 14.2 39.3 15.7 53.2.3 1.9.8 6.4 1.2 10 .9 8.4.9 30.4 0 40-2.8 29-11.7 56.4-26.5 82-4.2 7.2-14 21.2-19.1 27.5-7.3 8.7-26 26.2-36.6 34-6.6 4.9-12.5 9.6-13.2 10.5-7.7 9.6-5.3 24.1 5 30.7 3.5 2.3 5.3 2.8 11.3 2.8 6.8 0 7.3-.2 14.5-4.9 54.4-36 93.7-97.5 104.4-163.1 3.9-23.6 4-52.9.5-76.5-1.5-9.5-6.2-29.8-9-38.1-2.5-7.5-11-28.9-12-30.4-.4-.6-2.7-4.8-5.1-9.5-16.3-31.8-46.6-65.7-77-86.4-7.9-5.3-9.2-5.8-15-6.2-5.1-.3-7.3 0-10.7 1.7zM203 90c-5.9 1.7-10.4 5.8-47.9 43.3l-39.3 39.5H69c-51.6 0-49.6-.2-56.8 6.5-6.1 5.8-6.1 6.3-6 77.1 0 35.1.4 65.4.9 67.4 1.1 4.9 5.7 10.3 11.2 13.1l4.7 2.3h92.5l39.7 39.6c21.8 21.8 40.9 40.2 42.5 41.1 10.7 5.6 24.7.6 28.9-10.5 1.6-4.2 1.7-14.8 1.7-153.7 0-137.9-.1-149.5-1.7-153.2-.9-2.2-2.7-5-3.9-6.3-4.5-4.9-14-7.9-19.7-6.2z"/><path d="M330.8 118.4c-5.9 2.1-8.5 4.2-11.5 9.3-2.3 3.9-2.8 5.9-2.7 10.8.1 9.3 2 12.1 14.9 21.4 19.3 14.1 34.3 33.9 42.3 56.1 3.5 9.7 3.8 10.9 6.1 26 1.1 6.4.8 25.6-.3 31.5-.4 1.6-1.1 5.4-1.7 8.4-3.5 17.4-12.6 35.7-25.3 50.6-6.7 7.8-10.5 11.4-19.6 18.2-11.1 8.3-13.8 11.1-15.5 16.3-5.3 16.1 10.6 32.5 25.7 26.5 7.7-3 21-12.9 31.8-23.7 11.3-11.3 17.4-19.1 25.3-32.6 20.6-34.9 27.1-76 18.3-115.9-8.9-40-32.3-74.7-65.8-97.6-9.7-6.6-14.9-7.8-22-5.3z"/><path d="M280 189.3c-6.2 3.3-10.2 9.2-10.8 16.1-.8 9.4 2.8 16.1 11.2 21 12.8 7.5 19.7 23.8 16.1 37.7-2.5 9.5-6.7 14.8-18.4 23.2-15.8 11.4-9.9 35.4 9.2 37.4 7.3.7 11.9-1 21.2-8 12.7-9.5 22.5-23.6 27.5-39.2 2.6-8.1 3.7-28 1.9-35.5-.6-2.5-1.2-5.2-1.4-6.2-.7-3.4-5.4-14.1-8.6-19.5-4.4-7.4-17.9-20.8-25.4-25.3-7.7-4.6-15.8-5.2-22.5-1.7z"/></svg>